<svg width="210" height="219" viewBox="0 0 210 219" fill="none" xmlns="http://www.w3.org/2000/svg">
<path d="M82.01 67C82.01 67 84.6597 72.0586 91.2234 71.6757C97.7871 71.2929 143.594 71.6757 143.594 71.6757C143.594 71.6757 156.97 71.6757 160.382 79.5305C160.382 79.5305 165.179 94.4801 148.264 96H136.655L138.231 95.4953V88.4643C138.231 88.4643 138.295 86.6891 135.645 86.5615H92.2336C92.2336 86.5615 83.9035 87.7624 82.01 82.1932V67V67Z" fill="url(#paint0_linear)"/>
<path d="M82.01 96H151.024C151.024 96 160.323 97.463 161.792 105.545C163.261 113.633 157.559 121.977 137.032 120.907L138.834 119.575V112.367C138.834 112.367 138.688 110.856 136.729 110.761H90.0436C90.0436 110.761 82.6513 110.91 82.0158 105.194V96H82.01Z" fill="url(#paint1_linear)"/>
<path d="M67.2457 116.304C67.2457 116.304 67.845 120.435 73.5151 120.464H138.612C138.612 120.464 157.028 121.976 161.01 111L160.901 123.518C160.901 123.518 162.422 135.315 145.227 136H78.0789C78.0789 135.994 65.1194 130.333 67.2457 116.304Z" fill="url(#paint2_linear)"/>
<path d="M0 162.6H28.26C32.88 162.6 36.27 163.78 38.43 166.15C40.6 168.52 41.68 172.12 41.68 176.96C41.68 180.15 41.07 182.74 39.84 184.74C38.62 186.73 37.11 188.13 35.32 188.93C36.36 189.25 37.39 189.76 38.43 190.45C39.47 191.14 40.37 192.07 41.15 193.24C41.93 194.41 42.56 195.83 43.06 197.51C43.56 199.19 43.8 201.11 43.8 203.29C43.8 208.5 42.72 212.33 40.55 214.78C38.38 217.23 34.99 218.45 30.38 218.45H0V162.6ZM28.97 178.55C28.97 175.36 27.56 173.76 24.73 173.76H12.72V184.93H24.73C27.56 184.93 28.97 183.33 28.97 180.14V178.55ZM31.09 200.89C31.09 197.7 29.68 196.1 26.85 196.1H12.72V207.27H26.85C29.68 207.27 31.09 205.67 31.09 202.48V200.89V200.89Z" fill="url(#paint3_linear)"/>
<path d="M62.1701 215.3H58.2501V209.1H52.8101V215.3H48.8901V200.07H52.8101V206.05H58.2501V200.07H62.1701V215.3Z" fill="url(#paint4_linear)"/>
<path d="M87.2001 211.17C87.2001 212.69 86.8601 213.8 86.1701 214.49C85.4801 215.18 84.3801 215.52 82.8501 215.52H77.4101C75.8901 215.52 74.7801 215.18 74.0901 214.49C73.4001 213.8 73.0601 212.69 73.0601 211.17V204.21C73.0601 202.69 73.4001 201.58 74.0901 200.89C74.7801 200.2 75.8901 199.86 77.4101 199.86H82.8501C84.3701 199.86 85.4801 200.2 86.1701 200.89C86.8601 201.58 87.2001 202.69 87.2001 204.21V211.17ZM83.2801 204.21C83.2801 203.34 82.8401 202.9 81.9701 202.9H78.2701C77.4001 202.9 76.9601 203.34 76.9601 204.21V211.17C76.9601 212.04 77.4001 212.48 78.2701 212.48H81.9701C82.8401 212.48 83.2801 212.04 83.2801 211.17V204.21Z" fill="url(#paint5_linear)"/>
<path d="M107.87 200.07H111.79V211.16C111.79 212.68 111.45 213.79 110.76 214.48C110.07 215.17 108.97 215.51 107.44 215.51H102.43C100.91 215.51 99.8001 215.17 99.1101 214.48C98.4201 213.79 98.0801 212.68 98.0801 211.16V200.07H102V211.16C102 212.03 102.44 212.47 103.31 212.47H106.57C107.44 212.47 107.88 212.03 107.88 211.16V200.07H107.87Z" fill="url(#paint6_linear)"/>
<path d="M126.37 204.86C126.37 205.73 126.81 206.17 127.68 206.17H131.6C133.02 206.17 134.07 206.5 134.73 207.15C135.4 207.81 135.73 208.83 135.73 210.23V211.3C135.73 212.7 135.4 213.73 134.73 214.38C134.06 215.04 133.02 215.36 131.6 215.36C131.16 215.36 130.7 215.36 130.22 215.36C129.74 215.36 129.24 215.36 128.74 215.36C128.24 215.36 127.74 215.36 127.24 215.36C126.74 215.36 126.26 215.36 125.81 215.36C124.75 215.36 123.7 215.27 122.65 215.08V212.3C123.71 212.3 124.74 212.3 125.74 212.3C126.6 212.3 127.48 212.3 128.4 212.3C129.31 212.3 130.09 212.3 130.73 212.3C131.06 212.3 131.33 212.21 131.52 212.02C131.72 211.83 131.81 211.58 131.81 211.27V209.42H126.8C125.28 209.42 124.17 209.08 123.48 208.39C122.79 207.7 122.45 206.59 122.45 205.07V204.42C122.45 202.9 122.79 201.79 123.48 201.1C124.17 200.41 125.28 200.07 126.8 200.07H134.44V203.11H127.67C126.8 203.11 126.36 203.55 126.36 204.42V204.86H126.37Z" fill="url(#paint7_linear)"/>
<path d="M158.47 215.3H146.39V200.07H158.47V203.11H150.31V206.05H156.73V209.1H150.31V212.25H158.47V215.3Z" fill="url(#paint8_linear)"/>
<path d="M52.87 194.16H44.51L55.87 164.15H64.45L75.81 194.16H67.45L65.52 188.8H54.8L52.87 194.16ZM56.73 183.23H63.59L60.16 173.16L56.73 183.23Z" fill="url(#paint9_linear)"/>
<path d="M91.68 194.16H83.96V170.15H74.96V164.15H100.69V170.15H91.69V194.16H91.68Z" fill="url(#paint10_linear)"/>
<path d="M120.41 194.16H112.69V170.15H103.69V164.15H129.42V170.15H120.42V194.16H120.41Z" fill="url(#paint11_linear)"/>
<path d="M158.36 194.16H134.56V164.15H158.36V170.15H142.28V175.94H154.93V181.94H142.28V188.16H158.36V194.16V194.16Z" fill="url(#paint12_linear)"/>
<path d="M164.82 162.6H194.5C199.45 162.6 203.04 163.86 205.27 166.39C207.51 168.92 208.63 172.97 208.63 178.56V185.74C208.63 190.16 207.98 193.59 206.69 196.03C205.39 198.48 203.33 200.1 200.51 200.9L209.34 218.45H195.56L187.44 201.7H177.55V218.45H164.83V162.6H164.82ZM195.91 178.56C195.91 175.37 194.5 173.77 191.67 173.77H177.54V190.52H191.67C194.5 190.52 195.91 188.92 195.91 185.73V178.56Z" fill="url(#paint13_linear)"/>
<path d="M80.8604 12.0013L95.2244 2.20937C95.2244 2.20937 104.893 -3.29027 113.873 3.06436L156.919 31.2212C156.919 31.2212 165.136 36.2298 165.009 44.4157V73C165.009 73 156.288 63.3467 140.739 66.1601C140.739 66.1601 142.127 56.3855 153.253 57.3618L93.0443 17.3334L87.8053 14.0117C87.8053 14.0117 83.8385 11.5276 79.01 13.3704L80.8604 12.0013Z" fill="url(#paint14_linear)"/>
<path d="M78.6639 13.829L50.4278 32.6642C50.4278 32.6642 43.0166 37.678 43.0166 47.2141V118.512C43.0166 118.512 42.251 134.045 57.2019 136H77.8983C77.8983 136 66.9101 130.622 66.9101 120.594V65.442C66.9101 65.442 66.3373 56.6982 54.8991 57.9242L97.9575 29.125C97.9575 29.125 103.645 24.4986 109.01 28.0783L88.1208 14.2917C88.1208 14.2917 83.5852 11.724 78.6639 13.829Z" fill="url(#paint15_linear)"/>
<defs>
<linearGradient id="paint0_linear" x1="88.4873" y1="81.5026" x2="167.485" y2="81.5026" gradientUnits="userSpaceOnUse">
<stop offset="0.1019" stop-color="#F15A29"/>
<stop offset="0.9861" stop-color="#F7941E"/>
</linearGradient>
<linearGradient id="paint1_linear" x1="121.045" y1="87.2575" x2="123.122" y2="126.814" gradientUnits="userSpaceOnUse">
<stop offset="0.1019" stop-color="#F15A29"/>
<stop offset="0.9861" stop-color="#F7941E"/>
</linearGradient>
<linearGradient id="paint2_linear" x1="114.007" y1="125.984" x2="114.007" y2="151.604" gradientUnits="userSpaceOnUse">
<stop offset="0.1019" stop-color="#F15A29"/>
<stop offset="0.9861" stop-color="#F7941E"/>
</linearGradient>
<linearGradient id="paint3_linear" x1="21.9004" y1="116.543" x2="21.9004" y2="274.496" gradientUnits="userSpaceOnUse">
<stop stop-color="#BCBEC0"/>
<stop offset="0.2251" stop-color="#6D6E71"/>
<stop offset="0.4869" stop-color="#D1D3D4"/>
<stop offset="0.7435" stop-color="#A7A9AC"/>
<stop offset="1" stop-color="#231F20"/>
</linearGradient>
<linearGradient id="paint4_linear" x1="55.5354" y1="194.218" x2="55.5354" y2="223.218" gradientUnits="userSpaceOnUse">
<stop offset="0.1019" stop-color="#F15A29"/>
<stop offset="0.9861" stop-color="#F7941E"/>
</linearGradient>
<linearGradient id="paint5_linear" x1="80.1266" y1="194.218" x2="80.1266" y2="223.219" gradientUnits="userSpaceOnUse">
<stop offset="0.1019" stop-color="#F15A29"/>
<stop offset="0.9861" stop-color="#F7941E"/>
</linearGradient>
<linearGradient id="paint6_linear" x1="104.935" y1="194.218" x2="104.935" y2="223.219" gradientUnits="userSpaceOnUse">
<stop offset="0.1019" stop-color="#F15A29"/>
<stop offset="0.9861" stop-color="#F7941E"/>
</linearGradient>
<linearGradient id="paint7_linear" x1="129.091" y1="194.218" x2="129.091" y2="223.218" gradientUnits="userSpaceOnUse">
<stop offset="0.1019" stop-color="#F15A29"/>
<stop offset="0.9861" stop-color="#F7941E"/>
</linearGradient>
<linearGradient id="paint8_linear" x1="152.431" y1="194.218" x2="152.431" y2="223.218" gradientUnits="userSpaceOnUse">
<stop offset="0.1019" stop-color="#F15A29"/>
<stop offset="0.9861" stop-color="#F7941E"/>
</linearGradient>
<linearGradient id="paint9_linear" x1="60.1615" y1="116.543" x2="60.1615" y2="274.495" gradientUnits="userSpaceOnUse">
<stop stop-color="#BCBEC0"/>
<stop offset="0.2251" stop-color="#6D6E71"/>
<stop offset="0.4869" stop-color="#D1D3D4"/>
<stop offset="0.7435" stop-color="#A7A9AC"/>
<stop offset="1" stop-color="#231F20"/>
</linearGradient>
<linearGradient id="paint10_linear" x1="87.8189" y1="116.543" x2="87.8189" y2="274.495" gradientUnits="userSpaceOnUse">
<stop stop-color="#BCBEC0"/>
<stop offset="0.2251" stop-color="#6D6E71"/>
<stop offset="0.4869" stop-color="#D1D3D4"/>
<stop offset="0.7435" stop-color="#A7A9AC"/>
<stop offset="1" stop-color="#231F20"/>
</linearGradient>
<linearGradient id="paint11_linear" x1="116.548" y1="116.543" x2="116.548" y2="274.495" gradientUnits="userSpaceOnUse">
<stop stop-color="#BCBEC0"/>
<stop offset="0.2251" stop-color="#6D6E71"/>
<stop offset="0.4869" stop-color="#D1D3D4"/>
<stop offset="0.7435" stop-color="#A7A9AC"/>
<stop offset="1" stop-color="#231F20"/>
</linearGradient>
<linearGradient id="paint12_linear" x1="146.457" y1="116.543" x2="146.457" y2="274.495" gradientUnits="userSpaceOnUse">
<stop stop-color="#BCBEC0"/>
<stop offset="0.2251" stop-color="#6D6E71"/>
<stop offset="0.4869" stop-color="#D1D3D4"/>
<stop offset="0.7435" stop-color="#A7A9AC"/>
<stop offset="1" stop-color="#231F20"/>
</linearGradient>
<linearGradient id="paint13_linear" x1="187.074" y1="116.543" x2="187.074" y2="274.496" gradientUnits="userSpaceOnUse">
<stop stop-color="#BCBEC0"/>
<stop offset="0.2251" stop-color="#6D6E71"/>
<stop offset="0.4869" stop-color="#D1D3D4"/>
<stop offset="0.7435" stop-color="#A7A9AC"/>
<stop offset="1" stop-color="#231F20"/>
</linearGradient>
<linearGradient id="paint14_linear" x1="104.867" y1="9.95931" x2="199.263" y2="97.6585" gradientUnits="userSpaceOnUse">
<stop offset="0.2251" stop-color="#6D6E71"/>
<stop offset="0.4869" stop-color="#D1D3D4"/>
<stop offset="0.7435" stop-color="#A7A9AC"/>
<stop offset="1" stop-color="#231F20"/>
</linearGradient>
<linearGradient id="paint15_linear" x1="75.5629" y1="39.7566" x2="51.4827" y2="193.706" gradientUnits="userSpaceOnUse">
<stop stop-color="#BCBEC0"/>
<stop offset="0.2251" stop-color="#6D6E71"/>
<stop offset="0.4869" stop-color="#D1D3D4"/>
<stop offset="0.7435" stop-color="#A7A9AC"/>
<stop offset="1" stop-color="#231F20"/>
</linearGradient>
</defs>
</svg>
