<svg width="300" height="81" viewBox="0 0 300 81" fill="none" xmlns="http://www.w3.org/2000/svg">
<g clip-path="url(#clip0)">
<path d="M90.45 24H118.71C123.33 24 126.72 25.18 128.88 27.55C131.05 29.92 132.13 33.52 132.13 38.36C132.13 41.55 131.52 44.14 130.29 46.14C129.06 48.14 127.56 49.53 125.77 50.33C126.81 50.65 127.84 51.16 128.88 51.85C129.92 52.54 130.82 53.47 131.6 54.64C132.38 55.81 133.01 57.23 133.51 58.91C134.01 60.59 134.25 62.51 134.25 64.69C134.25 69.9 133.17 73.73 131 76.18C128.83 78.63 125.44 79.85 120.83 79.85H90.45V24ZM119.41 39.95C119.41 36.76 118 35.16 115.17 35.16H103.16V46.33H115.17C118 46.33 119.41 44.73 119.41 41.54V39.95V39.95ZM121.53 62.29C121.53 59.1 120.12 57.5 117.29 57.5H103.16V68.67H117.3C120.13 68.67 121.54 67.07 121.54 63.88V62.29H121.53Z" fill="#231F20"/>
<path d="M90 24H118.26C122.88 24 126.27 25.18 128.43 27.55C130.6 29.92 131.68 33.52 131.68 38.36C131.68 41.55 131.07 44.14 129.84 46.14C128.61 48.14 127.11 49.53 125.32 50.33C126.36 50.65 127.39 51.16 128.43 51.85C129.47 52.54 130.37 53.47 131.15 54.64C131.93 55.81 132.56 57.23 133.06 58.91C133.56 60.59 133.8 62.51 133.8 64.69C133.8 69.9 132.72 73.73 130.55 76.18C128.38 78.63 124.99 79.85 120.38 79.85H90V24ZM118.97 39.95C118.97 36.76 117.56 35.16 114.73 35.16H102.72V46.33H114.73C117.56 46.33 118.97 44.73 118.97 41.54V39.95ZM121.09 62.29C121.09 59.1 119.68 57.5 116.85 57.5H102.72V68.67H116.85C119.68 68.67 121.09 67.07 121.09 63.88V62.29V62.29Z" fill="url(#paint0_linear)"/>
<path d="M152.17 76.6997H148.25V70.4997H142.81V76.6997H138.9V61.4697H142.82V67.4497H148.26V61.4697H152.18V76.6997H152.17Z" fill="url(#paint1_linear)"/>
<path d="M177.2 72.5698C177.2 74.0898 176.86 75.1998 176.17 75.8898C175.48 76.5798 174.38 76.9198 172.85 76.9198H167.41C165.89 76.9198 164.78 76.5798 164.09 75.8898C163.4 75.1998 163.06 74.0898 163.06 72.5698V65.6098C163.06 64.0898 163.4 62.9798 164.09 62.2898C164.78 61.5998 165.89 61.2598 167.41 61.2598H172.85C174.37 61.2598 175.48 61.5998 176.17 62.2898C176.86 62.9798 177.2 64.0898 177.2 65.6098V72.5698ZM173.29 65.6098C173.29 64.7398 172.85 64.2998 171.98 64.2998H168.28C167.41 64.2998 166.97 64.7398 166.97 65.6098V72.5698C166.97 73.4398 167.41 73.8798 168.28 73.8798H171.98C172.85 73.8798 173.29 73.4398 173.29 72.5698V65.6098Z" fill="url(#paint2_linear)"/>
<path d="M197.88 61.4697H201.8V72.5597C201.8 74.0797 201.46 75.1897 200.77 75.8797C200.08 76.5697 198.98 76.9097 197.45 76.9097H192.44C190.92 76.9097 189.81 76.5697 189.12 75.8797C188.43 75.1897 188.09 74.0797 188.09 72.5597V61.4697H192V72.5597C192 73.4297 192.44 73.8697 193.31 73.8697H196.57C197.44 73.8697 197.88 73.4297 197.88 72.5597V61.4697V61.4697Z" fill="url(#paint3_linear)"/>
<path d="M216.37 66.2597C216.37 67.1297 216.81 67.5697 217.68 67.5697H221.6C223.02 67.5697 224.07 67.8997 224.73 68.5497C225.4 69.2097 225.73 70.2297 225.73 71.6297V72.6997C225.73 74.0997 225.4 75.1297 224.73 75.7797C224.06 76.4397 223.02 76.7597 221.6 76.7597C221.16 76.7597 220.7 76.7597 220.22 76.7597C219.74 76.7597 219.24 76.7597 218.74 76.7597C218.24 76.7597 217.74 76.7597 217.24 76.7597C216.74 76.7597 216.26 76.7597 215.81 76.7597C214.75 76.7597 213.7 76.6697 212.65 76.4797V73.6997C213.71 73.6997 214.74 73.6997 215.74 73.6997C216.6 73.6997 217.48 73.6997 218.4 73.6997C219.31 73.6997 220.09 73.6997 220.73 73.6997C221.06 73.6997 221.33 73.6097 221.52 73.4197C221.72 73.2297 221.81 72.9797 221.81 72.6697V70.8197H216.8C215.28 70.8197 214.17 70.4797 213.48 69.7897C212.79 69.0997 212.45 67.9897 212.45 66.4697V65.8197C212.45 64.2997 212.79 63.1897 213.48 62.4997C214.17 61.8097 215.28 61.4697 216.8 61.4697H224.44V64.5097H217.67C216.8 64.5097 216.36 64.9497 216.36 65.8197V66.2597H216.37Z" fill="url(#paint4_linear)"/>
<path d="M248.47 76.6997H236.39V61.4697H248.47V64.5097H240.31V67.4497H246.73V70.4997H240.31V73.6497H248.47V76.6997Z" fill="url(#paint5_linear)"/>
<path d="M142.87 55.5601H134.51L145.88 25.5601H154.46L165.82 55.5701H157.46L155.53 50.2101H144.8L142.87 55.5601ZM146.73 44.6301H153.59L150.16 34.5601L146.73 44.6301Z" fill="url(#paint6_linear)"/>
<path d="M181.68 55.5601H173.96V31.5601H164.96V25.5601H190.69V31.5601H181.69V55.5601H181.68Z" fill="url(#paint7_linear)"/>
<path d="M210.41 55.5601H202.69V31.5601H193.69V25.5601H219.42V31.5601H210.42V55.5601H210.41Z" fill="url(#paint8_linear)"/>
<path d="M248.36 55.5601H224.56V25.5601H248.36V31.5601H232.28V37.3501H244.93V43.3501H232.28V49.5701H248.36V55.5601Z" fill="url(#paint9_linear)"/>
<path d="M254.82 24H284.5C289.45 24 293.04 25.26 295.27 27.79C297.51 30.32 298.63 34.37 298.63 39.96V47.14C298.63 51.56 297.98 54.99 296.69 57.43C295.39 59.88 293.33 61.5 290.51 62.3L299.34 79.85H285.56L277.44 63.1H267.55V79.85H254.83V24H254.82ZM285.91 39.96C285.91 36.77 284.5 35.17 281.67 35.17H267.54V51.92H281.67C284.5 51.92 285.91 50.32 285.91 47.13V39.96Z" fill="url(#paint10_linear)"/>
</g>
<g clip-path="url(#clip1)">
<path d="M23.3592 40.2739C23.3592 40.2739 24.9523 43.2843 28.8987 43.0564C32.8452 42.8286 60.3868 43.0564 60.3868 43.0564C60.3868 43.0564 68.4288 43.0564 70.4801 47.7308C70.4801 47.7308 73.3645 56.6272 63.1947 57.5317H56.2147L57.1623 57.2313V53.0472C57.1623 53.0472 57.2005 51.9908 55.6073 51.9149H29.5062C29.5062 51.9149 24.4976 52.6295 23.3592 49.3154V40.2739V40.2739Z" fill="url(#paint11_linear)"/>
<path d="M23.3592 57.5352H64.4477C64.4477 57.5352 69.9838 58.3844 70.8585 63.076C71.7331 67.7711 68.3386 72.6145 56.1176 71.9931L57.1901 71.2198V67.0357C57.1901 67.0357 57.1033 66.1589 55.9371 66.1036H28.1421C28.1421 66.1036 23.741 66.1899 23.3627 62.8723V57.5352H23.3592Z" fill="url(#paint12_linear)"/>
<path d="M14.1786 69.5799C14.1786 69.5799 14.5396 71.9757 17.9549 71.993H57.1657C57.1657 71.993 68.2587 72.8698 70.6571 66.5039L70.5912 73.764C70.5912 73.764 71.5075 80.6063 61.1503 81.0033H20.7039C20.7039 80.9999 12.8978 77.7168 14.1786 69.5799Z" fill="url(#paint13_linear)"/>
<path d="M22.4914 7.17039L31.1131 1.31883C31.1131 1.31883 36.9165 -1.9677 42.3068 1.82977L68.1442 18.656C68.1442 18.656 73.0763 21.6491 73 26.5409V43.6226C73 43.6226 67.7659 37.8539 58.4326 39.5352C58.4326 39.5352 59.2656 33.694 65.9436 34.2774L29.8046 10.3568L26.66 8.37177C26.66 8.37177 24.2789 6.8873 21.3807 7.98857L22.4914 7.17039Z" fill="url(#paint14_linear)"/>
<path d="M21.1725 8.07156L4.40454 19.3155C4.40454 19.3155 0.00343652 22.3086 0.00343652 28.0014V70.5641C0.00343652 70.5641 -0.451251 79.8368 8.42731 81.0037H20.7178C20.7178 81.0037 14.1925 77.7931 14.1925 71.8069V38.8828C14.1925 38.8828 13.8523 33.6631 7.05978 34.3949L32.6299 17.2028C32.6299 17.2028 36.0071 14.441 39.1934 16.5779L26.7884 8.34774C26.7884 8.34774 24.095 6.81495 21.1725 8.07156Z" fill="url(#paint15_linear)"/>
</g>
<defs>
<linearGradient id="paint0_linear" x1="111.903" y1="-22.0566" x2="111.903" y2="135.896" gradientUnits="userSpaceOnUse">
<stop stop-color="#BCBEC0"/>
<stop offset="0.2251" stop-color="#6D6E71"/>
<stop offset="0.4869" stop-color="#D1D3D4"/>
<stop offset="0.7435" stop-color="#A7A9AC"/>
<stop offset="1" stop-color="#231F20"/>
</linearGradient>
<linearGradient id="paint1_linear" x1="145.538" y1="55.6188" x2="145.538" y2="84.6191" gradientUnits="userSpaceOnUse">
<stop offset="0.1019" stop-color="#F15A29"/>
<stop offset="0.9861" stop-color="#F7941E"/>
</linearGradient>
<linearGradient id="paint2_linear" x1="170.129" y1="55.6189" x2="170.129" y2="84.6192" gradientUnits="userSpaceOnUse">
<stop offset="0.1019" stop-color="#F15A29"/>
<stop offset="0.9861" stop-color="#F7941E"/>
</linearGradient>
<linearGradient id="paint3_linear" x1="194.938" y1="55.6188" x2="194.938" y2="84.6191" gradientUnits="userSpaceOnUse">
<stop offset="0.1019" stop-color="#F15A29"/>
<stop offset="0.9861" stop-color="#F7941E"/>
</linearGradient>
<linearGradient id="paint4_linear" x1="219.094" y1="55.6188" x2="219.094" y2="84.6191" gradientUnits="userSpaceOnUse">
<stop offset="0.1019" stop-color="#F15A29"/>
<stop offset="0.9861" stop-color="#F7941E"/>
</linearGradient>
<linearGradient id="paint5_linear" x1="242.434" y1="55.6188" x2="242.434" y2="84.6191" gradientUnits="userSpaceOnUse">
<stop offset="0.1019" stop-color="#F15A29"/>
<stop offset="0.9861" stop-color="#F7941E"/>
</linearGradient>
<linearGradient id="paint6_linear" x1="150.164" y1="-22.0565" x2="150.164" y2="135.896" gradientUnits="userSpaceOnUse">
<stop stop-color="#BCBEC0"/>
<stop offset="0.2251" stop-color="#6D6E71"/>
<stop offset="0.4869" stop-color="#D1D3D4"/>
<stop offset="0.7435" stop-color="#A7A9AC"/>
<stop offset="1" stop-color="#231F20"/>
</linearGradient>
<linearGradient id="paint7_linear" x1="177.821" y1="-22.0565" x2="177.821" y2="135.896" gradientUnits="userSpaceOnUse">
<stop stop-color="#BCBEC0"/>
<stop offset="0.2251" stop-color="#6D6E71"/>
<stop offset="0.4869" stop-color="#D1D3D4"/>
<stop offset="0.7435" stop-color="#A7A9AC"/>
<stop offset="1" stop-color="#231F20"/>
</linearGradient>
<linearGradient id="paint8_linear" x1="206.551" y1="-22.0565" x2="206.551" y2="135.896" gradientUnits="userSpaceOnUse">
<stop stop-color="#BCBEC0"/>
<stop offset="0.2251" stop-color="#6D6E71"/>
<stop offset="0.4869" stop-color="#D1D3D4"/>
<stop offset="0.7435" stop-color="#A7A9AC"/>
<stop offset="1" stop-color="#231F20"/>
</linearGradient>
<linearGradient id="paint9_linear" x1="236.459" y1="-22.0565" x2="236.459" y2="135.896" gradientUnits="userSpaceOnUse">
<stop stop-color="#BCBEC0"/>
<stop offset="0.2251" stop-color="#6D6E71"/>
<stop offset="0.4869" stop-color="#D1D3D4"/>
<stop offset="0.7435" stop-color="#A7A9AC"/>
<stop offset="1" stop-color="#231F20"/>
</linearGradient>
<linearGradient id="paint10_linear" x1="277.076" y1="-22.0566" x2="277.076" y2="135.896" gradientUnits="userSpaceOnUse">
<stop stop-color="#BCBEC0"/>
<stop offset="0.2251" stop-color="#6D6E71"/>
<stop offset="0.4869" stop-color="#D1D3D4"/>
<stop offset="0.7435" stop-color="#A7A9AC"/>
<stop offset="1" stop-color="#231F20"/>
</linearGradient>
<linearGradient id="paint11_linear" x1="27.2537" y1="48.9044" x2="74.7512" y2="48.9044" gradientUnits="userSpaceOnUse">
<stop offset="0.1019" stop-color="#F15A29"/>
<stop offset="0.9861" stop-color="#F7941E"/>
</linearGradient>
<linearGradient id="paint12_linear" x1="46.5993" y1="52.4603" x2="47.775" y2="75.4254" gradientUnits="userSpaceOnUse">
<stop offset="0.1019" stop-color="#F15A29"/>
<stop offset="0.9861" stop-color="#F7941E"/>
</linearGradient>
<linearGradient id="paint13_linear" x1="42.3452" y1="75.1945" x2="42.3452" y2="90.0533" gradientUnits="userSpaceOnUse">
<stop offset="0.1019" stop-color="#F15A29"/>
<stop offset="0.9861" stop-color="#F7941E"/>
</linearGradient>
<linearGradient id="paint14_linear" x1="36.9009" y1="5.95012" x2="93.3291" y2="58.6067" gradientUnits="userSpaceOnUse">
<stop offset="0.2251" stop-color="#6D6E71"/>
<stop offset="0.4869" stop-color="#D1D3D4"/>
<stop offset="0.7435" stop-color="#A7A9AC"/>
<stop offset="1" stop-color="#231F20"/>
</linearGradient>
<linearGradient id="paint15_linear" x1="19.3309" y1="23.5495" x2="4.88394" y2="115.429" gradientUnits="userSpaceOnUse">
<stop stop-color="#BCBEC0"/>
<stop offset="0.2251" stop-color="#6D6E71"/>
<stop offset="0.4869" stop-color="#D1D3D4"/>
<stop offset="0.7435" stop-color="#A7A9AC"/>
<stop offset="1" stop-color="#231F20"/>
</linearGradient>
<clipPath id="clip0">
<rect width="209.33" height="55.84" fill="white" transform="translate(90 24)"/>
</clipPath>
<clipPath id="clip1">
<rect width="73" height="81" fill="white"/>
</clipPath>
</defs>
</svg>
